<?xml version="1.0" encoding="UTF-8" standalone="no"?>
<!DOCTYPE svg PUBLIC "-//W3C//DTD SVG 1.1//EN" "http://www.w3.org/Graphics/SVG/1.1/DTD/svg11.dtd">
<svg width="100%" height="100%" viewBox="0 0 101 101" version="1.1" xmlns="http://www.w3.org/2000/svg" xmlns:xlink="http://www.w3.org/1999/xlink" xml:space="preserve" xmlns:serif="http://www.serif.com/" style="fill-rule:evenodd;clip-rule:evenodd;stroke-linejoin:round;stroke-miterlimit:2;">
    <g transform="matrix(1,0,0,1,-578,-114)">
        <g id="Artboard1" transform="matrix(1,0,0,1,-267.566,-128.17)">
            <rect x="845.566" y="242.17" width="100.009" height="100.009" style="fill:none;"/>
            <g transform="matrix(0.459648,-0.154021,0.154021,0.459648,611.507,168.618)">
                <path d="M453.466,350.517L452.03,341.714C451.837,340.284 452.271,338.84 453.22,337.754C454.17,336.668 455.542,336.044 456.985,336.044L485.515,336.044C486.957,336.044 488.328,336.666 489.277,337.75C490.227,338.835 490.662,340.276 490.472,341.705L482.066,394.766C482.061,394.8 482.056,394.833 482.051,394.866L479.622,410.645L479.678,410.666C489.24,414.157 496.057,423.341 496.057,434.105C496.057,447.903 484.855,459.105 471.057,459.105C457.26,459.105 446.057,447.903 446.057,434.105C446.057,423.235 453.01,413.976 462.716,410.564L461.285,400.108C446.718,404.337 436.057,417.796 436.057,433.723C436.057,453.04 451.74,468.723 471.057,468.723C490.374,468.723 506.057,453.04 506.057,433.723C506.057,424.061 502.133,415.308 495.793,408.973C493.841,407.022 493.84,403.854 495.791,401.902C497.742,399.95 500.91,399.949 502.862,401.899C511.013,410.045 516.057,421.3 516.057,433.723C516.057,458.559 495.894,478.723 471.057,478.723C446.221,478.723 426.057,458.559 426.057,433.723C426.057,412.728 440.468,395.074 459.926,390.114L458.314,380.234C434.983,386.598 417.81,407.961 417.81,433.302C417.81,463.657 442.455,488.302 472.81,488.302C503.165,488.302 527.81,463.657 527.81,433.302C527.81,418.118 521.643,404.363 511.681,394.408C509.729,392.457 509.728,389.288 511.679,387.336C513.629,385.385 516.798,385.384 518.75,387.334C530.523,399.101 537.81,415.357 537.81,433.302C537.81,469.176 508.684,498.302 472.81,498.302C436.935,498.302 407.81,469.176 407.81,433.302C407.81,402.986 428.61,377.492 456.697,370.319L455.081,360.412C422.235,368.379 397.81,398.011 397.81,433.302C397.81,474.695 431.416,508.302 472.81,508.302C514.204,508.302 547.81,474.695 547.81,433.302C547.81,412.597 539.401,393.84 525.816,380.264C523.864,378.313 523.863,375.145 525.814,373.193C527.765,371.241 530.933,371.24 532.885,373.191C548.281,388.577 557.81,409.836 557.81,433.302C557.81,480.214 519.723,518.302 472.81,518.302C425.897,518.302 387.81,480.214 387.81,433.302C387.81,393.041 415.863,359.282 453.466,350.517ZM471.057,419.105C479.336,419.105 486.057,425.826 486.057,434.105C486.057,442.384 479.336,449.105 471.057,449.105C462.779,449.105 456.057,442.384 456.057,434.105C456.057,425.826 462.779,419.105 471.057,419.105ZM471.26,413.242L480.512,346.167C480.512,346.167 480.799,343.986 478.412,344.044C474.68,344.044 466.501,344.044 462.949,344.044C460.752,344.044 461.019,346.09 461.019,346.09L471.26,413.242Z" style="fill:rgb(14,178,3);"/>
            </g>
        </g>
    </g>
</svg>
